<svg role="img" viewBox="0 0 40 40" xmlns="http://www.w3.org/2000/svg">
    <title>DeSo Wallet Generator</title>
    <path d="M10.3931107,10.4691736 C12.3566716,10.4691736 14.1904458,11.0335509 15.7418884,12.0207305 C17.3368473,13.0298871 18.6279545,14.4834421 19.4414311,16.2085686 C19.6367112,16.6206965 19.4630045,17.1198662 19.0400919,17.3151368 C18.9099052,17.3802292 18.7689298,17.4018035 18.6387526,17.3910168 C16.6859517,17.4561092 14.9715852,18.2807467 13.5287902,19.4632254 C11.5109531,21.1124605 10.0245467,23.4231035 9.14565293,25.3219139 C8.36454208,27.0035242 7.46404261,28.0993323 6.55277359,28.750266 C5.71735797,29.3360967 4.86040325,29.5641139 4.05730578,29.5205882 C4.03573241,29.5205882 4.01378673,29.5205882 3.98142668,29.5098015 C3.20031583,29.4554958 2.4951155,29.1408185 1.90921809,28.6743859 C1.27986162,28.1644276 0.802649936,27.4700254 0.542314567,26.710825 C0.173331555,25.6042568 -2.7063556e-15,24.378281 -2.7063556e-15,23.1306899 C-2.7063556e-15,20.657123 0.694449834,18.0207275 1.97470186,15.796736 C3.27656915,13.5400835 5.19699479,11.7066902 7.62695027,10.8928327 C8.4943603,10.6209279 9.41682735,10.4691736 10.3932278,10.4691736 L10.3931107,10.4691736 Z" id="Shape" fill="#4C79B9"></path>
    <path d="M10.4691736,29.6068893 C10.4691736,27.6433284 11.0335509,25.8095542 12.0207305,24.2581116 C13.0298871,22.6631527 14.4834421,21.3720455 16.2085686,20.5585689 C16.6206965,20.3632888 17.1198662,20.5369955 17.3151368,20.9599081 C17.3802292,21.0900948 17.4018035,21.2310702 17.3910168,21.3612474 C17.4561092,23.3140483 18.2807467,25.0284148 19.4632254,26.4712098 C21.1124605,28.4890469 23.4231035,29.9754533 25.3219139,30.8543471 C27.0035242,31.6354579 28.0993323,32.5359574 28.750266,33.4472264 C29.3360967,34.282642 29.5641139,35.1395967 29.5205882,35.9426942 C29.5205882,35.9642676 29.5205882,35.9862133 29.5098015,36.0185733 C29.4554958,36.7996842 29.1408185,37.5048845 28.6743859,38.0907819 C28.1644276,38.7201384 27.4700254,39.1973501 26.710825,39.4576854 C25.6042568,39.8266684 24.378281,40 23.1306899,40 C20.657123,40 18.0207275,39.3055502 15.796736,38.0252981 C13.5400835,36.7234309 11.7066902,34.8030052 10.8928327,32.3730497 C10.6209279,31.5056397 10.4691736,30.5831727 10.4691736,29.6067722 L10.4691736,29.6068893 Z" id="Shape" fill="#4C79B9"></path>
    <path d="M29.6068893,29.5308264 C27.6433284,29.5308264 25.8095542,28.9664491 24.2581116,27.9792695 C22.6631527,26.9701129 21.3720455,25.5165579 20.5585689,23.7914314 C20.3632888,23.3793035 20.5369955,22.8801338 20.9599081,22.6848632 C21.0900948,22.6197708 21.2310702,22.5981965 21.3612474,22.6089832 C23.3140483,22.5438908 25.0284148,21.7192533 26.4712098,20.5367746 C28.4890469,18.8875395 29.9754533,16.5768965 30.8543471,14.6780861 C31.6354579,12.9964758 32.5359574,11.9006677 33.4472264,11.249734 C34.282642,10.6639033 35.1395967,10.4358861 35.9426942,10.4794118 C35.9642676,10.4794118 35.9862133,10.4794118 36.0185733,10.4901985 C36.7996842,10.5445042 37.5048845,10.8591815 38.0907819,11.3256141 C38.7201384,11.8355724 39.1973501,12.5299746 39.4576854,13.289175 C39.8266684,14.3957432 40,15.621719 40,16.8693101 C40,19.342877 39.3055502,21.9792725 38.0252981,24.203264 C36.7234309,26.4599165 34.8030052,28.2933098 32.3730497,29.1071673 C31.5056397,29.3790721 30.5831727,29.5308264 29.6067722,29.5308264 L29.6068893,29.5308264 Z" id="Shape" fill="#4C79B9"></path>
    <path d="M29.5308264,10.3931107 C29.5308264,12.3566716 28.9664491,14.1904458 27.9792695,15.7418884 C26.9701129,17.3368473 25.5165579,18.6279545 23.7914314,19.4414311 C23.3793035,19.6367112 22.8801338,19.4630045 22.6848632,19.0400919 C22.6197708,18.9099052 22.5981965,18.7689298 22.6089832,18.6387526 C22.5438908,16.6859517 21.7192533,14.9715852 20.5367746,13.5287902 C18.8875395,11.5109531 16.5768965,10.0245467 14.6780861,9.14565293 C12.9964758,8.36454208 11.9006677,7.46404261 11.249734,6.55277359 C10.6639033,5.71735797 10.4358861,4.86040325 10.4794118,4.05730578 C10.4794118,4.03573241 10.4794118,4.01378673 10.4901985,3.98142668 C10.5445042,3.20031583 10.8591815,2.4951155 11.3256141,1.90921809 C11.8355724,1.27986162 12.5299746,0.802649936 13.289175,0.542314567 C14.3957432,0.173331555 15.621719,0 16.8693101,0 C19.342877,0 21.9792725,0.694449834 24.203264,1.97470186 C26.4599165,3.27656915 28.2933098,5.19699479 29.1071673,7.62695027 C29.3790721,8.4943603 29.5308264,9.41682735 29.5308264,10.3932278 L29.5308264,10.3931107 Z" id="Shape" fill="#4C79B9"></path>
    <path d="M20.0057133,17.4994854 C20.7001631,17.4994854 21.3183406,17.7814266 21.7739751,18.2262915 C22.2296287,18.6819451 22.5007812,19.3004844 22.5007812,19.9945533 C22.5007812,20.6890032 22.2188401,21.3071806 21.7739751,21.7628151 C21.3183215,22.2184687 20.6997822,22.4896212 20.0057133,22.4896212 C19.3112635,22.4896212 18.693086,22.2076801 18.2374515,21.7628151 C17.7817979,21.3071616 17.5106454,20.6886223 17.5106454,19.9945533 C17.5106454,19.3001035 17.7925865,18.681926 18.2374515,18.2262915 C18.6819451,17.7814266 19.3112635,17.4994854 20.0057133,17.4994854 L20.0057133,17.4994854 Z M20.591544,19.4087702 C20.4397801,19.2570063 20.2333496,19.1699739 20.0057133,19.1699739 C19.7777056,19.1699739 19.5716369,19.2677949 19.4198825,19.4087702 C19.2681186,19.5605341 19.1810862,19.7669646 19.1810862,19.9946009 C19.1810862,20.2226086 19.2789072,20.4286773 19.4198825,20.5804317 C19.5716464,20.7321956 19.778077,20.819228 20.0057133,20.819228 C20.233721,20.819228 20.4397897,20.721407 20.591544,20.5804317 C20.7433079,20.4286678 20.8303403,20.2222373 20.8303403,19.9946009 C20.8299684,19.7669646 20.7433022,19.5608959 20.591544,19.4087702 Z" id="Shape" fill="#00B3CB"></path>
</svg>