<?xml version="1.0" standalone="no"?>
<!DOCTYPE svg PUBLIC "-//W3C//DTD SVG 20010904//EN"
 "http://www.w3.org/TR/2001/REC-SVG-20010904/DTD/svg10.dtd">
<svg version="1.0" xmlns="http://www.w3.org/2000/svg"
 width="512.000000pt" height="512.000000pt" viewBox="0 0 512.000000 512.000000"
 preserveAspectRatio="xMidYMid meet">
<metadata>
Created by potrace 1.14, written by Peter Selinger 2001-2017
</metadata>
<g transform="translate(0.000000,512.000000) scale(0.100000,-0.100000)"
fill="#000000" stroke="none">
<path d="M2063 4650 c-101 -14 -194 -40 -262 -73 -165 -80 -262 -257 -234
-423 32 -184 168 -322 468 -472 270 -135 492 -314 631 -508 88 -123 164 -323
164 -431 0 -81 36 -133 90 -133 31 0 142 61 221 120 186 140 324 346 387 579
22 84 25 115 25 256 0 133 -3 173 -21 240 -110 402 -501 721 -1012 825 -118
24 -355 35 -457 20z"/>
<path d="M1377 3545 c-429 -82 -777 -484 -887 -1026 -52 -252 -31 -542 52
-717 62 -133 199 -230 337 -240 121 -8 227 35 335 137 75 72 136 163 221 331
182 357 412 607 669 725 96 45 164 63 271 74 78 8 92 12 112 36 33 38 29 71
-22 159 -145 254 -374 431 -654 503 -123 31 -319 40 -434 18z"/>
<path d="M4120 3546 c-171 -46 -295 -178 -443 -471 -236 -466 -568 -748 -924
-784 -98 -10 -130 -27 -139 -76 -5 -28 0 -47 31 -102 142 -260 376 -443 664
-521 84 -22 115 -25 256 -25 181 0 262 16 393 78 501 237 810 955 666 1545
-65 262 -283 417 -504 356z"/>
<path d="M2490 2811 c-45 -14 -84 -39 -116 -73 -54 -57 -69 -95 -69 -178 0
-83 15 -121 69 -178 44 -48 101 -74 172 -80 107 -8 202 50 250 153 44 94 23
214 -52 289 -62 62 -173 91 -254 67z m135 -191 c26 -26 26 -91 1 -119 -62 -69
-181 4 -146 89 24 59 100 74 145 30z"/>
<path d="M2098 2466 c-252 -143 -431 -376 -505 -654 -23 -85 -26 -117 -26
-257 0 -134 3 -173 21 -240 111 -402 495 -716 1012 -826 86 -19 137 -23 285
-23 205 0 321 20 433 75 181 88 278 288 227 465 -48 167 -181 292 -460 432
-467 233 -764 579 -792 922 -12 158 -60 183 -195 106z"/>
</g>
</svg>
